<?xml version="1.0" encoding="UTF-8"?>
<svg version="1.1" xmlns="http://www.w3.org/2000/svg" width="1800" height="352">
<path d="M0 0 C3.35136948 1.7605043 5.74542657 4.12397014 8.34301758 6.8190918 C8.87187057 7.35456131 9.40072357 7.89003082 9.94560242 8.44172668 C11.63093682 10.15036915 13.3057901 11.8688285 14.97973633 13.58862305 C16.64459708 15.28885996 18.31168049 16.98682549 19.98173523 18.68196106 C21.01704226 19.73387661 22.04923045 20.78887593 23.07746887 21.84770203 C25.68210758 24.50488083 28.34716032 27.00885993 31.18164062 29.41992188 C36.92639457 34.39337348 42.21336487 39.83686542 47.56550598 45.22422791 C49.54860666 47.22023829 51.53494207 49.2129801 53.52209473 51.20495605 C58.45398061 56.15012256 63.38037519 61.10074774 68.3069458 66.0512085 C72.48118988 70.2452691 76.65753489 74.43721668 80.83662415 78.62644958 C82.78171678 80.57796556 84.72374299 82.53249689 86.66564941 84.48718262 C91.93964461 89.78291767 97.19605478 95.01544564 102.89224243 99.86212158 C106.20338524 102.73303491 109.29806925 105.82877928 112.41333008 108.90893555 C113.10991226 109.59744598 113.80649445 110.28595642 114.52418518 110.99533081 C115.98013529 112.43756686 117.43462484 113.88127874 118.88769531 115.32641602 C120.37383512 116.80093641 121.86445627 118.27095297 123.359375 119.73657227 C125.53299435 121.86770195 127.69322227 124.01161128 129.85083008 126.15893555 C130.52053329 126.81113068 131.19023651 127.46332581 131.88023376 128.13528442 C132.49500076 128.75297699 133.10976776 129.37066956 133.74316406 130.00708008 C134.55635353 130.81147018 134.55635353 130.81147018 135.38597107 131.6321106 C137.03764324 133.91253505 137.38774249 135.60656447 137.66723633 138.40112305 C136.73108292 140.13685703 136.73108292 140.13685703 135.11407471 141.82020569 C134.45895149 142.51255373 133.80382828 143.20490177 133.12885284 143.91823006 C131.91035267 145.14726209 131.91035267 145.14726209 130.66723633 146.40112305 C129.67574625 147.41682433 128.6845974 148.4328588 127.69371796 149.44915581 C123.99415718 153.22382375 120.25586969 156.95931194 116.51782227 160.69580078 C115.08305332 162.13356544 113.64848846 163.57153378 112.21411133 165.00968933 C108.33671021 168.89588589 104.45610719 172.77886951 100.57462597 176.66099048 C98.14963606 179.08669265 95.72536016 181.51310605 93.3013382 183.93977547 C84.84542521 192.40492231 76.38695067 200.86749974 67.92602539 209.32763672 C60.03527919 217.21778046 52.15014609 225.11350331 44.26758361 233.01182216 C37.49648817 239.79597046 30.72156609 246.57628097 23.94362092 253.35358578 C19.89644196 257.40050938 15.85084237 261.44898202 11.8090744 265.50131035 C8.01482061 269.30520883 4.21584455 273.10432544 0.41311646 276.89975166 C-0.98385612 278.29567433 -2.37911017 279.69331918 -3.77254486 281.09277344 C-5.66925446 282.99714772 -7.57196831 284.89530896 -9.47637939 286.79197693 C-10.03094448 287.35168558 -10.58550957 287.91139423 -11.15687966 288.48806375 C-16.28601661 293.57097104 -20.24048622 293.54854759 -27.17724609 293.54156494 C-28.54998955 293.54602162 -28.54998955 293.54602162 -29.9504652 293.55056834 C-33.0297301 293.55926878 -36.10895619 293.56076471 -39.18823242 293.56225586 C-41.39067671 293.56688297 -43.5931202 293.57190748 -45.79556274 293.57730103 C-51.78713068 293.59043469 -57.7786874 293.59687151 -63.77026749 293.60131168 C-67.50996299 293.60423998 -71.24965541 293.60834425 -74.98934937 293.61281586 C-86.67987315 293.62649142 -98.37039049 293.63617457 -110.06092167 293.64001775 C-111.40641848 293.64046122 -112.7519153 293.64090778 -114.09741211 293.64135742 C-115.09853352 293.64168957 -115.09853352 293.64168957 -116.1198796 293.64202842 C-126.94265853 293.64597935 -137.76537025 293.66344331 -148.5881232 293.68671694 C-159.69512511 293.71040951 -170.80209901 293.72263359 -181.90912724 293.72405887 C-188.14725176 293.72510947 -194.38528144 293.73107161 -200.62338257 293.74887848 C-206.4871049 293.76529122 -212.35066039 293.76754789 -218.21439743 293.75873947 C-220.37074605 293.75796552 -222.5271034 293.76235856 -224.68342972 293.77219772 C-227.6185822 293.78480914 -230.55313397 293.77909969 -233.48828125 293.76861572 C-234.77946255 293.78070033 -234.77946255 293.78070033 -236.09672832 293.79302907 C-241.88650356 293.74438866 -241.88650356 293.74438866 -244.07786083 292.0587852 C-245.33276367 290.40112305 -245.33276367 290.40112305 -245.27026367 287.5065918 C-244.19665104 283.95024997 -242.91640984 282.35558067 -240.33276367 279.71362305 C-237.06742682 276.26287275 -233.94309066 272.78525539 -230.95776367 269.08862305 C-227.66852519 265.0284693 -224.33778501 261.01057032 -220.95776367 257.02612305 C-220.2679541 256.21268433 -220.2679541 256.21268433 -219.56420898 255.3828125 C-217.68284384 253.16595688 -215.79975795 250.95056597 -213.91674805 248.73510742 C-209.19756757 243.18044271 -204.49201318 237.62052379 -199.89526367 231.96362305 C-195.93768179 227.0998328 -191.86733921 222.34231073 -187.77441406 217.59277344 C-184.74331078 214.06813386 -181.76291051 210.51072422 -178.83276367 206.90112305 C-174.89897797 202.05515516 -170.84828608 197.32013777 -166.77416992 192.5925293 C-163.74318083 189.06794402 -160.76283786 185.51063472 -157.83276367 181.90112305 C-153.44563465 176.50036133 -148.92052955 171.22644604 -144.38354492 165.9519043 C-138.13849046 158.69081301 -131.93645217 151.39558876 -125.89526367 143.96362305 C-121.93768179 139.0998328 -117.86733921 134.34231073 -113.77441406 129.59277344 C-110.74331078 126.06813386 -107.76291051 122.51072422 -104.83276367 118.90112305 C-100.89897797 114.05515516 -96.84828608 109.32013777 -92.77416992 104.5925293 C-89.74318083 101.06794402 -86.76283786 97.51063472 -83.83276367 93.90112305 C-79.89897797 89.05515516 -75.84828608 84.32013777 -71.77416992 79.5925293 C-68.74318083 76.06794402 -65.76283786 72.51063472 -62.83276367 68.90112305 C-58.44563465 63.50036133 -53.92052955 58.22644604 -49.38354492 52.9519043 C-43.13849046 45.69081301 -36.93645217 38.39558876 -30.89526367 30.96362305 C-26.94503348 26.10886788 -22.88696039 21.35575555 -18.79418945 16.62133789 C-14.79370403 11.98087761 -10.95299905 7.23512907 -7.17260742 2.4128418 C-4.83066351 -0.14788244 -3.41569704 -0.87689219 0 0 Z " fill="#3A3F57" transform="translate(1639.332763671875,37.598876953125)"/>
<path d="M0 0 C8.25 0 16.5 0 25 0 C25 29.04 25 58.08 25 88 C149.41 88 273.82 88 402 88 C402 70.84 402 53.68 402 36 C410.25 36 418.5 36 427 36 C427 59.76 427 83.52 427 108 C252.43 108 77.86 108 -102 108 C-102 101.4 -102 94.8 -102 88 C-88.14 88 -74.28 88 -60 88 C-63.50044529 73.99821883 -65.89730284 66.45395605 -78.01171875 58.71484375 C-83.06032525 56.02157091 -88.4962867 54.48870933 -94 53 C-93.37942343 50.43635601 -92.75370801 47.87415074 -92.125 45.3125 C-91.86396484 44.2306543 -91.86396484 44.2306543 -91.59765625 43.12695312 C-90.64902134 39.27971155 -89.59509159 35.64284431 -88 32 C-75.49856967 33.18666999 -64.77398054 38.25458146 -55 46 C-53.948125 46.763125 -52.89625 47.52625 -51.8125 48.3125 C-40.13610523 59.46994389 -37.23475045 72.35674685 -35 88 C-23.45 88 -11.9 88 0 88 C0 58.96 0 29.92 0 0 Z " fill="#3A3F57" transform="translate(930,21)"/>
<path d="M0 0 C1.31097656 -0.020625 2.62195313 -0.04125 3.97265625 -0.0625 C15.36520722 -0.10820733 24.63004927 1.1876625 33.125 9.25 C43.08985958 21.5749579 40.125 39.7645564 40.125 54.25 C95.565 54.25 151.005 54.25 208.125 54.25 C208.125 37.09 208.125 19.93 208.125 2.25 C216.375 2.25 224.625 2.25 233.125 2.25 C233.125 26.01 233.125 49.77 233.125 74.25 C161.515 74.25 89.905 74.25 16.125 74.25 C15.795 61.71 15.465 49.17 15.125 36.25 C14.83683522 28.22849081 14.83683522 28.22849081 11.125 22.25 C5.76110195 20.44939818 0.77781868 20.25 -4.875 20.25 C-4.875 38.07 -4.875 55.89 -4.875 74.25 C-12.3 74.311875 -19.725 74.37375 -27.375 74.4375 C-30.83709961 74.47846802 -30.83709961 74.47846802 -34.36914062 74.52026367 C-53.35876783 74.65116357 -73.2498542 73.82108187 -87.6796875 59.83203125 C-96.72065785 49.19843445 -98.94646433 35.82188155 -97.875 22.25 C-97.0846887 16.54601409 -95.99888742 10.89619632 -94.875 5.25 C-76.92747813 1.0622449 -76.92747813 1.0622449 -67.875 1.25 C-68.308125 3.10625 -68.308125 3.10625 -68.75 5 C-69.12928488 6.74907632 -69.50391287 8.4991661 -69.875 10.25 C-70.07738281 11.16652344 -70.27976562 12.08304688 -70.48828125 13.02734375 C-72.39221108 22.67651194 -73.33327021 33.85830481 -68.09765625 42.640625 C-62.84034742 49.56078869 -56.01503368 51.62199326 -47.875 53.25 C-41.935 53.58 -35.995 53.91 -29.875 54.25 C-29.875 37.42 -29.875 20.59 -29.875 3.25 C-19.70272407 0.34363545 -10.52968668 0.0411718 0 0 Z " fill="#3A3F57" transform="translate(121.875,54.75)"/>
<path d="M0 0 C1.04712158 0.00725098 2.09424316 0.01450195 3.1730957 0.02197266 C13.44192625 0.20383383 22.72699411 1.54079764 32.3125 5.375 C32.3125 21.545 32.3125 37.715 32.3125 54.375 C107.8825 54.375 183.4525 54.375 261.3125 54.375 C261.3125 37.215 261.3125 20.055 261.3125 2.375 C269.5625 2.375 277.8125 2.375 286.3125 2.375 C286.3125 26.135 286.3125 49.895 286.3125 74.375 C248.69773384 74.44118314 211.08302276 74.49655765 173.46821501 74.52819599 C169.0236504 74.53194794 164.57908591 74.53583092 160.13452148 74.53979492 C159.24971893 74.54058185 158.36491638 74.54136878 157.45330163 74.54217956 C143.14194188 74.55522009 128.83061842 74.57886646 114.51928017 74.60645839 C99.82566842 74.63455027 85.13207562 74.65118425 70.43843812 74.65726548 C61.37760339 74.66137409 52.31687126 74.67433314 43.25606813 74.6987494 C37.03589742 74.71465332 30.81577946 74.71938986 24.59558991 74.71550413 C21.01121248 74.7135898 17.42701386 74.71644606 13.84266853 74.73261642 C9.94540666 74.75006885 6.04837379 74.7439257 2.15107727 74.73576355 C0.47446021 74.74887134 0.47446021 74.74887134 -1.2360279 74.76224393 C-13.65831906 74.69227363 -26.42869307 72.66456459 -35.53125 63.5234375 C-41.41565267 56.28331461 -43.24432143 48.18305251 -43.125 39 C-43.11670166 38.17000488 -43.10840332 37.34000977 -43.09985352 36.48486328 C-42.80518452 25.7446504 -39.45177686 16.99082032 -31.6875 9.375 C-22.0908038 2.00409216 -11.89326067 -0.16267232 0 0 Z M-11.6875 22.375 C-15.49558302 25.56555604 -17.46415046 28.38822789 -18.0234375 33.36328125 C-18.16758753 42.63167147 -18.16758753 42.63167147 -13.6875 50.375 C-7.20246737 55.69686953 -1.32357487 54.375 7.3125 54.375 C7.3125 43.485 7.3125 32.595 7.3125 21.375 C-3.39624509 18.83055141 -3.39624509 18.83055141 -11.6875 22.375 Z " fill="#3A3F57" transform="translate(526.6875,54.625)"/>
<path d="M0 0 C8.25 0 16.5 0 25 0 C30.1056876 10.81243285 34.96586098 21.70280476 39.6875 32.6875 C40.38329819 34.30174771 41.07926405 35.91592317 41.77539062 37.5300293 C43.85385481 42.35181025 45.92774164 47.17554917 48 52 C48.31890198 52.74237915 48.63780396 53.4847583 48.96636963 54.24963379 C52.65156218 62.82996048 56.32978254 71.41325563 60 80 C62.06926247 76.8961063 63.53380109 73.72530604 65.01953125 70.32421875 C65.314505 69.65487305 65.60947876 68.98552734 65.91339111 68.29589844 C66.88259316 66.09433226 67.84759456 63.89095229 68.8125 61.6875 C69.48542197 60.15658052 70.15851965 58.62573827 70.83178711 57.0949707 C74.13248804 49.5826903 77.41299888 42.06176654 80.671875 34.53125 C80.96096237 33.86325882 81.25004974 33.19526764 81.54789734 32.5070343 C82.90542293 29.36831244 84.25990439 26.22834256 85.6105957 23.08666992 C88.95378622 15.33053379 92.43409389 7.65636602 96 0 C103.92 0 111.84 0 120 0 C120 36.63 120 73.26 120 111 C112.74 111 105.48 111 98 111 C97.67 89.88 97.34 68.76 97 47 C89.65481502 63.94643632 89.65481502 63.94643632 82.31176758 80.89379883 C81.38109866 83.03990949 80.45035789 85.18598899 79.51953125 87.33203125 C79.04849976 88.42012085 78.57746826 89.50821045 78.09216309 90.62927246 C75.13124805 97.4526509 72.09567496 104.23664988 69 111 C63.39 111 57.78 111 52 111 C46.93655735 101.33433918 42.79492481 91.29776733 38.5625 81.25 C37.44585575 78.60778583 36.32829661 75.96595991 35.2106781 73.32415771 C34.52081185 71.69253329 33.83165984 70.06060657 33.14344788 68.42828369 C30.124869 61.27255649 27.05952475 54.13889107 24 47 C23.67 68.12 23.34 89.24 23 111 C15.41 111 7.82 111 0 111 C0 74.37 0 37.74 0 0 Z " fill="#3A3F57" transform="translate(484,190)"/>
<path d="M0 0 C63.57368311 0 63.57368311 0 79.74609375 15.5234375 C92.11042348 29.10920015 94.68821169 45.0533211 94.12744141 62.70898438 C93.36280126 76.45492915 86.64678236 89.64734602 76.59375 98.8828125 C54.35684759 117.03401898 28.47653166 111 0 111 C0 74.37 0 37.74 0 0 Z M22 21 C22 43.77 22 66.54 22 90 C44.20362376 91.41709816 44.20362376 91.41709816 62.46875 81.7578125 C69.68277875 73.47640195 71.47754535 63.81842031 71.24609375 53.1171875 C70.4578991 43.13338856 67.61194096 34.61194096 60.44140625 27.44140625 C49.5449042 18.63536023 35.18857767 21 22 21 Z " fill="#3A3F57" transform="translate(25,190)"/>
<path d="M0 0 C8.89034295 6.51859038 15.04651455 15.63419738 17.390625 26.45703125 C18.63195242 41.93681222 17.4478753 55.04337207 7.390625 67.45703125 C0.82950387 74.69404677 -8.68741112 78.94791934 -18.37109375 79.66015625 C-29.396946 79.83680542 -37.22836857 77.76579404 -45.609375 70.45703125 C-46.104375 69.96203125 -46.104375 69.96203125 -46.609375 69.45703125 C-46.939375 81.99703125 -47.269375 94.53703125 -47.609375 107.45703125 C-54.869375 107.45703125 -62.129375 107.45703125 -69.609375 107.45703125 C-69.609375 70.82703125 -69.609375 34.19703125 -69.609375 -3.54296875 C-62.349375 -3.54296875 -55.089375 -3.54296875 -47.609375 -3.54296875 C-47.279375 -0.90296875 -46.949375 1.73703125 -46.609375 4.45703125 C-46.18527344 4.05871094 -45.76117187 3.66039062 -45.32421875 3.25 C-32.73309289 -8.12352248 -14.52978984 -8.59171704 0 0 Z M-44.421875 23.68359375 C-48.26418458 29.42177977 -48.2241271 35.77282196 -47.609375 42.45703125 C-45.52492086 49.40521173 -41.59754849 54.6406905 -35.421875 58.39453125 C-27.16071423 60.69682196 -20.30006103 60.24900512 -12.7734375 56.0078125 C-7.28551566 52.07513205 -4.89982777 47.026609 -3.609375 40.45703125 C-2.93459572 33.16941501 -4.80749979 27.18558513 -8.796875 21.14453125 C-13.98376559 16.18816913 -18.38469859 14.23034814 -25.609375 13.95703125 C-33.9417391 14.28235025 -39.31470087 17.10533142 -44.421875 23.68359375 Z " fill="#3A3F57" transform="translate(1026.609375,223.54296875)"/>
<path d="M0 0 C7.26 0 14.52 0 22 0 C22.495 18.315 22.495 18.315 23 37 C25.97 35.02 28.94 33.04 32 31 C41.47610287 26.81936638 51.78163623 26.52034451 61.59765625 29.97265625 C72.39496878 34.59004356 79.86804217 41.32287204 84.4375 52.3125 C88.66987878 63.7949626 88.48309126 77.5118775 84.38671875 88.99609375 C79.52278289 99.53233792 72.50793382 106.5457255 61.75 110.8125 C51.7596349 113.97611561 41.72728609 114.25568766 32 110 C28.86611657 108.16723782 25.90852178 106.17085322 23 104 C22.67 106.31 22.34 108.62 22 111 C14.74 111 7.48 111 0 111 C0 74.37 0 37.74 0 0 Z M26.078125 55.27734375 C21.72040046 62.01106571 20.23886445 67.66414959 21.6875 75.625 C23.49134573 82.57757097 27.34738135 86.84705568 33 91 C38.82024819 93.75594533 45.07003602 94.12380819 51.28125 92.34765625 C57.6756838 89.48245803 62.20116574 84.37787452 65 78 C66.51146859 70.56861275 65.87274326 64.47795177 62.25 57.75 C57.95643171 52.50230542 53.36359432 48.63677644 46.45703125 47.62890625 C38.3792419 47.42606664 31.48539803 48.86994501 26.078125 55.27734375 Z " fill="#3A3F57" transform="translate(221,190)"/>
<path d="M0 0 C0.928125 0.7425 1.85625 1.485 2.8125 2.25 C3.1425 -0.06 3.4725 -2.37 3.8125 -4.75 C11.0725 -4.75 18.3325 -4.75 25.8125 -4.75 C25.8125 21.98 25.8125 48.71 25.8125 76.25 C18.5525 76.25 11.2925 76.25 3.8125 76.25 C3.3175 72.785 3.3175 72.785 2.8125 69.25 C2.27882813 69.64832031 1.74515625 70.04664063 1.1953125 70.45703125 C-8.57797036 77.40654553 -18.05044978 79.6885994 -29.94140625 77.81640625 C-40.90079759 75.30650297 -49.31875693 69.63299774 -55.52734375 60.25 C-62.30718279 47.99843204 -63.26167342 33.81006259 -59.6875 20.375 C-55.66566685 9.09975548 -48.79404935 1.61364126 -38.23828125 -3.73828125 C-25.67160719 -9.49005614 -11.20957754 -7.88489322 0 0 Z M-35.9609375 22.46875 C-40.23944281 28.68212076 -39.84040332 34.87797768 -39.1875 42.25 C-37.55803071 48.45564354 -33.49229826 52.78699241 -28.1875 56.25 C-22.38167738 59.02009837 -16.10661238 59.37070508 -9.90625 57.59765625 C-3.5118162 54.73245803 1.01366574 49.62787452 3.8125 43.25 C5.38283352 35.52919355 4.52617656 29.00594301 0.8125 22 C-2.4486732 17.23220293 -6.7388478 14.92948512 -12.1875 13.25 C-22.39304893 11.64829579 -29.53101432 14.56605112 -35.9609375 22.46875 Z " fill="#3A3F57" transform="translate(1111.1875,224.75)"/>
<path d="M0 0 C2.02184224 1.57802321 3.85010395 3.09733772 5.5625 5 C5.8925 2.36 6.2225 -0.28 6.5625 -3 C13.8225 -3 21.0825 -3 28.5625 -3 C28.5625 23.73 28.5625 50.46 28.5625 78 C21.3025 78 14.0425 78 6.5625 78 C6.0675 74.04 6.0675 74.04 5.5625 70 C5.13839844 70.39832031 4.71429688 70.79664063 4.27734375 71.20703125 C-3.73815504 78.44740488 -11.61289209 80.34194747 -22.31640625 80.2109375 C-32.59096893 79.51653652 -42.17607397 74.78452576 -49.25 67.3125 C-58.89081206 55.46091071 -59.54518391 41.61116564 -58.4375 27 C-56.36778569 16.5804668 -50.18201966 7.0453656 -41.4375 1 C-28.63077852 -6.80771953 -13.08304721 -7.61195474 0 0 Z M-31.1875 20.80078125 C-36.13499617 26.92568637 -38.11949531 33.08885441 -37.4375 41 C-35.9261293 47.39850371 -33.97695994 52.61614732 -28.34375 56.41015625 C-22.08804199 59.96363596 -16.57029265 61.13354726 -9.4375 60 C-3.19091437 58.16594204 0.98188288 54.34736899 4.5625 49 C7.72169169 42.68161662 7.58591475 34.4599044 5.5625 27.75 C3.20713079 22.29900269 -1.58330616 18.39683222 -6.83203125 15.828125 C-15.45494135 13.08740995 -24.78838633 14.21597901 -31.1875 20.80078125 Z " fill="#3A3F57" transform="translate(372.4375,223)"/>
<path d="M0 0 C0.87059555 -0.00852997 1.7411911 -0.01705994 2.63816833 -0.02584839 C4.07431488 -0.02448883 4.07431488 -0.02448883 5.53947449 -0.02310181 C6.54610641 -0.02981903 7.55273834 -0.03653625 8.58987427 -0.04345703 C11.93144105 -0.0625192 15.27280782 -0.06636557 18.61442566 -0.06851196 C20.93129561 -0.0749349 23.24816474 -0.08166287 25.56503296 -0.08868408 C30.42827739 -0.10067794 35.29145068 -0.10436281 40.15470886 -0.10317993 C46.38936506 -0.10297679 52.62356517 -0.13026482 58.85811329 -0.16472435 C63.64591571 -0.18695426 68.43360778 -0.19101864 73.22145653 -0.18996048 C75.51998655 -0.19232288 77.81851932 -0.20118213 80.11699867 -0.21662521 C83.33236781 -0.23620266 86.54674593 -0.2304787 89.76213074 -0.21841431 C90.71348907 -0.22965332 91.66484741 -0.24089233 92.64503479 -0.25247192 C96.90282146 -0.21183912 99.19824492 -0.14410635 102.86032104 2.1864624 C103.84268486 3.21653915 103.84268486 3.21653915 104.84489441 4.26742554 C105.45075378 4.85523804 106.05661316 5.44305054 106.68083191 6.04867554 C107.18872253 6.61586304 107.69661316 7.18305054 108.21989441 7.76742554 C109.00493347 8.61820679 109.00493347 8.61820679 109.80583191 9.48617554 C110.84489441 11.26742554 110.84489441 11.26742554 110.56022644 13.18710327 C109.36610526 16.65983589 106.75639024 19.13351485 104.34489441 21.82992554 C103.2397092 23.09075221 102.13555087 24.35247969 101.03239441 25.61508179 C100.48712097 26.23657104 99.94184753 26.8580603 99.38005066 27.49838257 C97.3145085 29.8786177 95.32592958 32.31662283 93.34489441 34.76742554 C89.41472017 39.60894453 85.36823368 44.34004945 81.29728699 49.06283569 C77.41779921 53.57329086 73.64164768 58.16022489 69.89176941 62.77914429 C66.95660658 66.34727162 63.91195124 69.81281639 60.84489441 73.26742554 C56.22941916 69.39895783 51.81709904 65.39851964 47.54240417 61.1578064 C46.95616776 60.57974747 46.36993134 60.00168854 45.76593018 59.40611267 C43.85308032 57.51780985 41.94415722 55.62561638 40.03630066 53.73226929 C39.38076643 53.08205873 38.7252322 52.43184818 38.0498333 51.76193428 C34.59070816 48.32938756 31.13516285 44.89327831 27.68205261 41.4546814 C24.82663484 38.6126728 21.96409649 35.77813699 19.09513855 32.94979858 C15.62009111 29.52393085 12.15735022 26.0860789 8.70324516 22.63910103 C7.38733015 21.32990888 6.067156 20.02498337 4.74269295 18.72443962 C2.89711224 16.91034592 1.06779274 15.08125364 -0.75837708 13.24765015 C-1.30842407 12.71400848 -1.85847107 12.18036682 -2.42518616 11.6305542 C-4.71648892 9.30072529 -6.0675716 7.7878941 -6.61740112 4.5186615 C-5.76717077 0.37830318 -3.81195118 0.0168423 0 0 Z " fill="#3A3F57" transform="translate(1521.1551055908203,20.732574462890625)"/>
<path d="M0 0 C7.68944976 5.83337568 10.13674078 14.34342391 11.55584717 23.50280762 C12.16703493 28.70293734 12.18405099 33.84819946 12.1328125 39.078125 C12.1299826 40.19314392 12.12715271 41.30816284 12.12423706 42.45697021 C12.11316202 45.97142895 12.08808194 49.48562005 12.0625 53 C12.05245379 55.40234003 12.04333084 57.80468412 12.03515625 60.20703125 C12.01497737 66.05487019 11.97580476 71.90214029 11.9375 77.75 C4.6775 77.75 -2.5825 77.75 -10.0625 77.75 C-10.09988281 74.3778125 -10.13726563 71.005625 -10.17578125 67.53125 C-10.22205564 64.24798269 -10.27326789 60.96482672 -10.32495117 57.68164062 C-10.35810715 55.40827254 -10.38616783 53.13482398 -10.40893555 50.86132812 C-10.4426529 47.58428815 -10.49497842 44.30797944 -10.55078125 41.03125 C-10.55717117 40.02259888 -10.5635611 39.01394775 -10.57014465 37.97473145 C-10.72327733 30.54489429 -11.58995862 24.65523612 -16.5625 18.8125 C-21.24551634 14.94901152 -26.25366692 15.26970647 -32.0625 15.75 C-36.17857097 17.04580012 -38.1677923 18.51963227 -40.375 22.125 C-42.5060639 26.70284098 -43.17323973 30.61920586 -43.26782227 35.63208008 C-43.28776749 36.57267776 -43.30771271 37.51327545 -43.32826233 38.4823761 C-43.35333107 39.9857679 -43.35333107 39.9857679 -43.37890625 41.51953125 C-43.39968735 42.55567062 -43.42046844 43.59181 -43.44187927 44.65934753 C-43.5071213 47.96033265 -43.56614179 51.26139549 -43.625 54.5625 C-43.66820932 56.80404441 -43.71182438 59.04558103 -43.75585938 61.28710938 C-43.8635381 66.77466117 -43.96280031 72.26227424 -44.0625 77.75 C-51.3225 77.75 -58.5825 77.75 -66.0625 77.75 C-66.0625 51.02 -66.0625 24.29 -66.0625 -3.25 C-58.8025 -3.25 -51.5425 -3.25 -44.0625 -3.25 C-43.7325 -0.61 -43.4025 2.03 -43.0625 4.75 C-42.0725 3.63625 -42.0725 3.63625 -41.0625 2.5 C-30.17443936 -8.41908076 -12.48555602 -7.56700365 0 0 Z " fill="#3A3F57" transform="translate(776.0625,223.25)"/>
<path d="M0 0 C7.26 0 14.52 0 22 0 C22.02578125 3.34898437 22.0515625 6.69796875 22.078125 10.1484375 C22.11661875 13.41853982 22.16175546 16.68848837 22.20751953 19.95849609 C22.23561629 22.21818611 22.25688657 24.47797233 22.27099609 26.73779297 C22.29258219 30.00017152 22.33931349 33.26140686 22.390625 36.5234375 C22.39185364 37.52176605 22.39308228 38.5200946 22.39434814 39.54867554 C22.53620248 46.45657609 23.36045441 54.46361391 28.58380127 59.53890991 C33.18991319 62.78485893 38.59261874 62.71502562 44 62 C48.11607097 60.70419988 50.1052923 59.23036773 52.3125 55.625 C54.4435639 51.04715902 55.11073973 47.13079414 55.20532227 42.11791992 C55.2352401 40.70702339 55.2352401 40.70702339 55.26576233 39.2676239 C55.29083107 37.7642321 55.29083107 37.7642321 55.31640625 36.23046875 C55.33718735 35.19432938 55.35796844 34.15819 55.37937927 33.09065247 C55.4446213 29.78966735 55.50364179 26.48860451 55.5625 23.1875 C55.60570932 20.94595559 55.64932438 18.70441897 55.69335938 16.46289062 C55.8010381 10.97533883 55.90030031 5.48772576 56 0 C63.26 0 70.52 0 78 0 C78 26.73 78 53.46 78 81 C70.74 81 63.48 81 56 81 C55.505 77.04 55.505 77.04 55 73 C54.53851563 73.47050781 54.07703125 73.94101562 53.6015625 74.42578125 C46.95147056 80.77359628 40.65175196 83.05230071 31.5 83.375 C22.37119652 83.0659855 14.57330337 80.500104 8 74 C-0.3222431 63.58131398 -0.16034371 50.9030324 -0.09765625 38.18359375 C-0.0962413 37.08652603 -0.09482635 35.98945831 -0.09336853 34.85914612 C-0.08781012 31.38523531 -0.07526546 27.91139104 -0.0625 24.4375 C-0.05747962 22.06966239 -0.05291766 19.70182377 -0.04882812 17.33398438 C-0.03870896 11.55594387 -0.01912556 5.77804565 0 0 Z " fill="#3A3F57" transform="translate(130,220)"/>
<path d="M0 0 C7.26 0 14.52 0 22 0 C22.03738281 3.61195313 22.07476563 7.22390625 22.11328125 10.9453125 C22.15951539 14.45025631 22.21074234 17.95509413 22.26245117 21.45996094 C22.29566947 23.8925124 22.32371099 26.32514037 22.34643555 28.7578125 C22.38003758 32.25814358 22.43235834 35.75777555 22.48828125 39.2578125 C22.49467117 40.34240753 22.5010611 41.42700256 22.50764465 42.54446411 C22.61491448 48.07539589 22.80381514 52.26778687 26 57 C30.95942671 61.4755802 33.92574284 62.30510457 40.4609375 62.2109375 C43.9691635 61.91948488 46.13689537 61.04507474 49 59 C52.56372213 54.37679292 54.10329729 50.85585344 54.20532227 45.06958008 C54.22526749 44.06876907 54.24521271 43.06795807 54.26576233 42.03681946 C54.29083107 40.4195118 54.29083107 40.4195118 54.31640625 38.76953125 C54.33718735 37.66397385 54.35796844 36.55841644 54.37937927 35.4193573 C54.44482332 31.8838021 54.50373603 28.34817194 54.5625 24.8125 C54.6056901 22.41730992 54.64930454 20.02212745 54.69335938 17.62695312 C54.80129889 11.75137783 54.90041108 5.87574656 55 0 C62.26 0 69.52 0 77 0 C77 26.73 77 53.46 77 81 C69.74 81 62.48 81 55 81 C54.505 77.535 54.505 77.535 54 74 C53.52691406 74.39832031 53.05382812 74.79664063 52.56640625 75.20703125 C43.93851534 82.11943508 36.01064438 83.99572013 25 83 C16.44783925 81.8217023 10.50847832 77.56586447 5 71 C3.20478426 67.76008558 1.97915027 64.56558496 1 61 C0.8245314 60.4106366 0.64906281 59.82127319 0.46827698 59.21405029 C-0.09903607 56.53174967 -0.11959306 54.05606296 -0.11352539 51.31347656 C-0.11344986 50.17259583 -0.11337433 49.03171509 -0.11329651 47.85626221 C-0.10813522 46.63010193 -0.10297394 45.40394165 -0.09765625 44.140625 C-0.0962413 42.88111023 -0.09482635 41.62159546 -0.09336853 40.32391357 C-0.08872073 36.98334881 -0.07974281 33.64285279 -0.06866455 30.30230713 C-0.05841598 26.8903462 -0.05386354 23.47837815 -0.04882812 20.06640625 C-0.03779963 13.37758275 -0.02053524 6.68880079 0 0 Z " fill="#3A3F57" transform="translate(620,220)"/>
<path d="M0 0 C7.59 0 15.18 0 23 0 C30.19849538 17.25933663 37.28001383 34.54713269 44 52 C45.59420052 49.60869922 46.59611007 47.74976922 47.63232422 45.13037109 C47.93959442 44.35881683 48.24686462 43.58726257 48.56344604 42.79232788 C48.89055573 41.96109406 49.21766541 41.12986023 49.5546875 40.2734375 C50.06891769 38.98005966 50.06891769 38.98005966 50.59353638 37.66055298 C51.69063787 34.89999046 52.78313088 32.13763579 53.875 29.375 C54.96028511 26.63401514 56.04660706 23.89345339 57.13504028 21.15371704 C57.81154368 19.45037353 58.48620403 17.7462964 59.15866089 16.04135132 C59.47223541 15.25088409 59.78580994 14.46041687 60.10888672 13.64599609 C60.51287186 12.62365372 60.51287186 12.62365372 60.92501831 11.58065796 C62.54564971 7.69008441 64.28828133 3.85136701 66 0 C73.59 0 81.18 0 89 0 C83.55592024 13.71809452 77.95274518 27.35183291 72.1875 40.9375 C70.95157982 43.8551413 69.71620836 46.7730146 68.48083496 49.69088745 C67.62927885 51.70200022 66.77747081 53.71300634 65.92541504 55.72390747 C62.79692369 63.10932793 59.68293904 70.50076975 56.57421875 77.89453125 C55.26492557 81.00593055 53.9554426 84.1172499 52.64590454 87.22854614 C51.80004123 89.23950516 50.95496604 91.25079587 50.11068726 93.26242065 C48.93797806 96.05609019 47.76229574 98.84849047 46.5859375 101.640625 C46.235811 102.47692947 45.88568451 103.31323395 45.52494812 104.17488098 C43.11388361 109.88611639 43.11388361 109.88611639 42 111 C40.43827255 111.08685603 38.87270656 111.10702219 37.30859375 111.09765625 C36.36435547 111.09443359 35.42011719 111.09121094 34.44726562 111.08789062 C33.45404297 111.07951172 32.46082031 111.07113281 31.4375 111.0625 C30.44041016 111.05798828 29.44332031 111.05347656 28.41601562 111.04882812 C25.94395151 111.03700007 23.47200482 111.02051849 21 111 C21.61714293 107.25369354 22.70029009 104.13613677 24.28515625 100.69140625 C24.73310547 99.69689453 25.18105469 98.70238281 25.64257812 97.67773438 C26.58839288 95.60266623 27.53891068 93.52973523 28.49414062 91.45898438 C28.94080078 90.46318359 29.38746094 89.46738281 29.84765625 88.44140625 C30.26023682 87.54107666 30.67281738 86.64074707 31.09790039 85.71313477 C33.22531094 79.31478202 31.41037647 74.78503184 28.80859375 68.9296875 C28.47150391 68.14699997 28.13441406 67.36431244 27.78710938 66.5579071 C26.68014836 63.99267363 25.55867515 61.43404848 24.4375 58.875 C23.27714264 56.19317746 22.1207619 53.50966084 20.96437073 50.8261261 C20.17140417 48.98694317 19.37715 47.1483149 18.58164978 45.31022644 C14.793344 36.55261394 11.09624315 27.75814784 7.43069458 18.94854736 C6.44687498 16.58502242 5.45980108 14.22287547 4.47241211 11.86083984 C3.8759321 10.42944831 3.27964789 8.99797517 2.68359375 7.56640625 C2.40942627 6.91105392 2.13525879 6.2557016 1.8527832 5.58049011 C0 1.11495044 0 1.11495044 0 0 Z " fill="#3A3F57" transform="translate(1271,220)"/>
<path d="M0 0 C3.7854578 3.57209563 7.05505706 6.75031699 8 12 C-2.37357631 19.48291572 -2.37357631 19.48291572 -8 22 C-8.63615234 21.29423828 -8.63615234 21.29423828 -9.28515625 20.57421875 C-14.51499925 15.02253926 -19.12177433 11.94492083 -26.9375 11.5625 C-31.37409525 11.68423585 -34.49842279 12.80805837 -38.30859375 15.02734375 C-40 16 -40 16 -43 17 C-46.9335943 23.49467548 -49.31650024 31.48166981 -47.53125 38.96484375 C-45.39484868 45.59023118 -41.73037823 50.37227452 -35.75 53.9375 C-29.5477037 55.69481728 -23.77841669 56.13828312 -17.8125 53.375 C-13.77785079 51.09061613 -10.3936289 48.13211808 -7 45 C-4.68074204 46.42746587 -2.36993512 47.86614854 -0.0625 49.3125 C0.59685547 49.71662109 1.25621094 50.12074219 1.93554688 50.53710938 C6.88671875 53.66015625 6.88671875 53.66015625 8 57 C4.25354931 64.79804215 -3.37622692 70.03330104 -11.11328125 73.32421875 C-23.42319148 77.52580488 -35.53789407 77.15625214 -47.5078125 71.8984375 C-58.84456908 65.94183658 -65.49166967 57.61773159 -69.39794922 45.40649414 C-70.38241065 41.47144292 -70.48958702 37.66546469 -70.4375 33.625 C-70.42992676 32.79500488 -70.42235352 31.96500977 -70.41455078 31.10986328 C-70.23689714 24.46924785 -69.15366669 18.9143531 -66 13 C-65.36384766 11.80503906 -65.36384766 11.80503906 -64.71484375 10.5859375 C-59.02822649 1.11352212 -49.49299649 -5.40939208 -38.875 -8.25 C-24.63661425 -10.97963872 -11.63539914 -8.69736357 0 0 Z " fill="#3A3F57" transform="translate(904,227)"/>
<path d="M0 0 C7.26 0 14.52 0 22 0 C22 6.93 22 13.86 22 21 C27.61 21 33.22 21 39 21 C39 26.61 39 32.22 39 38 C33.39 38 27.78 38 22 38 C22.0740717 43.46342649 22.15696384 48.9252371 22.26245117 54.38793945 C22.29565549 56.2452755 22.32370141 58.10271137 22.34643555 59.96020508 C22.38006442 62.63405798 22.43238374 65.30699993 22.48828125 67.98046875 C22.49467117 68.80773972 22.5010611 69.63501068 22.50764465 70.48735046 C22.62366932 75.06189834 22.88450325 78.38015303 26 82 C30.53966463 82.95186516 34.33824831 83 39 83 C39 88.61 39 94.22 39 100 C33.64622274 102.67688863 30.78473532 103.49215799 25.125 103.375 C24.41682129 103.36412354 23.70864258 103.35324707 22.97900391 103.34204102 C16.81579964 103.15392202 11.98693802 102.72457184 7.265625 98.41796875 C-0.12463363 90.34147182 -0.15712174 81.33065629 -0.09765625 70.91015625 C-0.0962413 69.96563095 -0.09482635 69.02110565 -0.09336853 68.04795837 C-0.0878036 65.05277237 -0.07525767 62.05766313 -0.0625 59.0625 C-0.05748046 57.02278754 -0.05291835 54.98307391 -0.04882812 52.94335938 C-0.03784567 47.96221034 -0.0206054 42.98111815 0 38 C-3.63 38 -7.26 38 -11 38 C-11 32.39 -11 26.78 -11 21 C-7.37 21 -3.74 21 0 21 C0 14.07 0 7.14 0 0 Z " fill="#3A3F57" transform="translate(1228,199)"/>
<path d="M0 0 C15.48880314 0.91110607 30.74301328 9.5865883 41 21 C53.39596015 38.11924841 53 54.36998511 53 76 C30.89 76 8.78 76 -14 76 C-14 69.4 -14 62.8 -14 56 C-0.14 55.67 13.72 55.34 28 55 C24.75770634 42.03082537 21.80272828 34.56837849 11 27 C5.86954735 24.39610192 0.62102961 22.26840336 -5 21 C-4.42351925 13.64987044 -2.28953836 6.98575424 0 0 Z " fill="#3A3F57" transform="translate(384,53)"/>
<path d="M0 0 C7.26 0 14.52 0 22 0 C22 36.63 22 73.26 22 111 C14.74 111 7.48 111 0 111 C0 74.37 0 37.74 0 0 Z " fill="#3A3F57" transform="translate(1150,190)"/>
<path d="M0 0 C7.26 0 14.52 0 22 0 C22 26.73 22 53.46 22 81 C14.74 81 7.48 81 0 81 C0 54.27 0 27.54 0 0 Z " fill="#3A3F57" transform="translate(1187,220)"/>
<path d="M0 0 C7.26 0 14.52 0 22 0 C22 26.73 22 53.46 22 81 C14.74 81 7.48 81 0 81 C0 54.27 0 27.54 0 0 Z " fill="#3A3F57" transform="translate(921,220)"/>
<path d="M0 0 C7.26 0 14.52 0 22 0 C22 26.73 22 53.46 22 81 C14.74 81 7.48 81 0 81 C0 54.27 0 27.54 0 0 Z " fill="#3A3F57" transform="translate(802,220)"/>
<path d="M0 0 C7.26 0 14.52 0 22 0 C22 26.73 22 53.46 22 81 C14.74 81 7.48 81 0 81 C0 54.27 0 27.54 0 0 Z " fill="#3A3F57" transform="translate(415,220)"/>
<path d="M0 0 C3.2763566 2.77230174 4.28512394 5.31481672 5 9.4375 C5.2364038 12.90283377 4.96067181 14.08494889 3.4375 17.375 C0.70254148 20.32033994 -1.18452524 21.72817508 -5 23 C-9.31352253 23 -12.03359663 22.26295003 -15.375 19.625 C-18.47833945 16.52166055 -18.90539881 15.00277258 -19.3125 10.6875 C-18.93324687 6.21231308 -17.96949544 4.35019998 -15 1 C-9.63748702 -2.30000799 -5.60491099 -2.64405583 0 0 Z " fill="#3A3F57" transform="translate(939,186)"/>
<path d="M0 0 C3.43763262 2.61559004 4.76958023 4.22233329 6 8.375 C6 13.43556956 4.73201578 17.14426881 1.25 20.875 C-2.67755271 22.83877635 -6.32899923 23.35807159 -10.625 22.4375 C-13.87469799 20.47057753 -16.25077581 18.36279425 -18 15 C-18.86050723 11.15181165 -18.86675027 7.72982788 -17.078125 4.16015625 C-12.31830869 -2.16050892 -7.03084338 -2.94017087 0 0 Z " fill="#3A3F57" transform="translate(1204,186)"/>
<path d="M0 0 C3.06731972 4.55450504 2.92871437 8.72886523 2.0625 14.0625 C0.28787347 17.28311851 -1.09410376 18.54709119 -4.1875 20.4375 C-7.98477922 21.300518 -11.21199099 21.25165237 -14.9375 20.0625 C-18.07671957 17.45761567 -20.62898327 15.26619092 -21.2109375 11.109375 C-21.3931143 6.98937663 -21.39619966 3.97884091 -18.8125 0.625 C-12.40235826 -5.0883872 -7.05267088 -4.65176165 0 0 Z " fill="#3A3F57" transform="translate(821.9375,187.9375)"/>
<path d="M0 0 C3.7358269 3.25891283 5.3141949 5.46575477 5.6875 10.4375 C5.41093379 14.85508467 3.92993277 17.54983233 0.84375 20.6796875 C-2.30272028 22.9328802 -5.18770315 23.40329687 -9 23 C-13.26590854 21.47071203 -15.64531256 19.84576459 -18 16 C-18.93981166 10.74488647 -18.95192186 6.37188738 -15.875 1.9375 C-10.17105012 -1.90646623 -6.46791553 -2.82236314 0 0 Z " fill="#3A3F57" transform="translate(433,186)"/>
<path d="M0 0 C2.63978907 2.12649675 3.90317388 3.69353425 5.25 6.8125 C5.78575611 11.81289033 5.33910768 14.80810116 2.25 18.8125 C-1.04084293 21.00639529 -2.84267558 21.50604318 -6.75 21.8125 C-11.18222752 20.83740995 -14.13735564 19.58631963 -16.75 15.8125 C-18.1534686 11.05881602 -18.26700121 7.8656506 -16.0625 3.375 C-11.50643873 -1.67360843 -6.46422946 -2.79137181 0 0 Z " fill="#3A3F57" transform="translate(347.75,139.1875)"/>
<path d="M0 0 C3.62342508 1.6470114 6.16816086 3.4327343 8 7 C8.5104392 12.35961156 8.4594433 15.64366399 5 20 C1.70915707 22.19389529 -0.09267558 22.69354318 -4 23 C-8.43421158 22.02447345 -11.34275594 20.73982498 -14 17 C-15.10866836 12.41750411 -15.38789125 10.14212424 -13.875 5.6875 C-10.13905149 0.33264047 -6.4093772 -0.68671899 0 0 Z " fill="#3A3F57" transform="translate(1347,138)"/>
<path d="M0 0 C2.9921671 2.78341125 3.91173429 4.46239367 4.6328125 8.40625 C4.72822151 12.05905209 3.555161 14.42739642 1.6875 17.5 C-1.64714101 20.45353918 -4.8524751 21.11351917 -9.3125 20.90234375 C-13.13013602 20.13434275 -14.86111769 18.42970081 -17.3125 15.5 C-18.37064121 12.42177102 -18.65997864 9.73553878 -18.3125 6.5 C-16.72054049 3.25711951 -15.36645191 1.29954972 -12.5 -0.875 C-7.83972943 -2.20650588 -4.41279071 -1.99824485 0 0 Z " fill="#3A3F57" transform="translate(517.3125,27.5)"/>
<path d="M0 0 C2.93423195 1.79646854 4.47205355 2.9441071 6 6 C6.5327848 10.44569615 6.56307588 13.94141734 4.4375 17.9375 C1.30442171 20.58856625 -0.94255582 21.38106784 -5 22 C-9.49469015 21.39055049 -11.37690601 20.68700107 -14.4375 17.3125 C-16.2709285 13.42563158 -16.60709465 11.24966255 -16 7 C-11.90676933 -0.36781521 -8.05288159 -0.94963226 0 0 Z " fill="#3A3F57" transform="translate(95,139)"/>
<path d="M0 0 C2.92970081 2.45138231 4.63434275 4.18236398 5.40234375 8 C5.61339528 12.45740838 4.8220023 15.57328293 2 19 C-0.9708879 21.31069059 -4.25161104 21.47087809 -7.96484375 21.39453125 C-11.61727597 20.68647817 -13.43783808 18.62465368 -16 16 C-17.53214888 12.93570224 -17.22938548 10.3834358 -17 7 C-15.68407862 3.95260312 -14.35508251 2.3133081 -11.875 0.125 C-7.70192465 -1.50794253 -4.25779767 -1.37050269 0 0 Z " fill="#3A3F57" transform="translate(542,27)"/>
<path d="M0 0 C2.82424288 2.19022918 4.41508603 3.83017207 6 7 C6.39236738 11.08062075 6.20149985 13.55502117 4.5 17.3125 C1.7158648 20.30544534 0.03637167 21.22101064 -3.90625 21.94921875 C-8.34362907 22.05684175 -11.62631917 20.15211941 -14.9375 17.375 C-16.61736736 13.62000237 -16.66909942 10.03618038 -16 6 C-11.94593628 -0.48650194 -7.27098548 -1.05177777 0 0 Z " fill="#3A3F57" transform="translate(792,139)"/>
<path d="M0 0 C2.93423195 1.79646854 4.47205355 2.9441071 6 6 C6.5327848 10.44569615 6.56307588 13.94141734 4.4375 17.9375 C1.32401825 20.57198456 -0.9743329 21.37532752 -5 22 C-9.53667888 21.11045512 -12.03287998 19.5165867 -15 16 C-16.76501976 12.46996049 -15.90869701 8.7379026 -15 5 C-11.28732042 -0.86842902 -6.42134835 -1.17039354 0 0 Z " fill="#3A3F57" transform="translate(69,139)"/>
<path d="M0 0 C2.94214318 1.30086496 3.83163498 2.39796197 6 5 C7.5308543 9.21201156 7.29932134 12.19183238 5.75 16.375 C3.6323134 19.55152991 1.90198583 20.73350419 -1.75 21.8125 C-6.65046295 22.09521902 -10.19742569 20.51183652 -13.9375 17.375 C-15.61736736 13.62000237 -15.66909942 10.03618038 -15 6 C-11.1212551 -0.20599185 -6.97372738 -1.0062761 0 0 Z " fill="#3A3F57" transform="translate(817,139)"/>
</svg>
